PathFileType	4	(X/Y/Z)	C:\Users\Basilio\Documents\Thesis Gigler\squatting_fais\c3dfiles\076\SLS_back_pre2\markers_experimental.trc
DataRate	CameraRate	NumFrames	NumMarkers	Units	OrigDataRate	OrigDataStartFrame	OrigNumFrames
200.000000	200.000000	4	61	mm	200.000000	730	1947
Frame#	Time	FHD			LBHD			RBHD			C7			T10			CLAV			LSHO			LUUPA			LMUPA			LDUPA			LLEP			LMEP			LRAD			LUL			LRFIN			RSHO			RUPA1			RMUPA			RDUPA			RLEP			RMEP			RRAD			RUL			RUFIN			RASI			USACR			LSACR			RSACR			LTHI1			LTHI2			LTHI3			LTHI4			LLFC			LMFC			LTIB1			LTIB2			LTIB3			LTIB4			LLMAL			LMMAL			LHEE			LMT1			LMT2			LMT5			RTHI			RTHI2			RTHI3			RTHI4			RLFC			RMFC			RTIB1			RTIB2			RTIB3			RTIB4			RLMAL			RMMAL			RHEE			RMT1			RMT2			RMT5			LASI			
		X1	Y1	Z1	X2	Y2	Z2	X3	Y3	Z3	X4	Y4	Z4	X5	Y5	Z5	X6	Y6	Z6	X7	Y7	Z7	X8	Y8	Z8	X9	Y9	Z9	X10	Y10	Z10	X11	Y11	Z11	X12	Y12	Z12	X13	Y13	Z13	X14	Y14	Z14	X15	Y15	Z15	X16	Y16	Z16	X17	Y17	Z17	X18	Y18	Z18	X19	Y19	Z19	X20	Y20	Z20	X21	Y21	Z21	X22	Y22	Z22	X23	Y23	Z23	X24	Y24	Z24	X25	Y25	Z25	X26	Y26	Z26	X27	Y27	Z27	X28	Y28	Z28	X29	Y29	Z29	X30	Y30	Z30	X31	Y31	Z31	X32	Y32	Z32	X33	Y33	Z33	X34	Y34	Z34	X35	Y35	Z35	X36	Y36	Z36	X37	Y37	Z37	X38	Y38	Z38	X39	Y39	Z39	X40	Y40	Z40	X41	Y41	Z41	X42	Y42	Z42	X43	Y43	Z43	X44	Y44	Z44	X45	Y45	Z45	X46	Y46	Z46	X47	Y47	Z47	X48	Y48	Z48	X49	Y49	Z49	X50	Y50	Z50	X51	Y51	Z51	X52	Y52	Z52	X53	Y53	Z53	X54	Y54	Z54	X55	Y55	Z55	X56	Y56	Z56	X57	Y57	Z57	X58	Y58	Z58	X59	Y59	Z59	X60	Y60	Z60	X61	Y61	Z61	

731	3.65	-216.2349395751954	1639.43310546875	-1022.970153808594	-355.5955200195313	1566.475219726563	-1116.999633789063	-339.6588745117188	1571.586181640625	-965.7321777343752	-399.3547973632814	1448.399169921875	-1037.50341796875	-436.7308044433595	1133.44189453125	-1040.8017578125	-268.3993530273438	1371.587768554688	-1044.678833007813	-337.2115783691407	1400.820922851563	-1202.117309570313	-204.3369140625001	1330.153930664063	-1295.239624023438	-165.2715301513672	1345.726806640625	-1267.736328125	-141.906234741211	1314.737060546875	-1315.508911132813	-94.93641662597658	1288.564453125	-1330.650512695313	-90.27585601806642	1228.613037109375	-1277.450317382813	154.4220733642578	1288.669189453125	-1302.54345703125	149.1012878417969	1282.901733398438	-1367.744018554688	237.5186462402344	1296.618774414063	-1311.4462890625	-316.4749755859376	1394.430053710938	-887.539245605469	-184.3855895996094	1314.796997070313	-800.4634399414065	-149.4858703613282	1346.1005859375	-816.2957763671877	-115.8646316528321	1299.596923828125	-794.0140380859377	-52.13937377929689	1297.46728515625	-794.5337524414065	-50.5030975341797	1250.9873046875	-857.6165161132815	191.8310852050782	1272.51708984375	-823.013854980469	177.8395080566407	1265.70947265625	-757.8591308593751	266.5655212402344	1277.119873046875	-805.2217407226565	-279.2164611816407	953.5325927734377	-918.7374267578127	-442.0534973144532	1024.76806640625	-1031.142700195313	-450.9900207519532	995.6273193359377	-1057.265014648438	-452.5865173339845	997.214050292969	-1000.443359375	-364.2414550781251	787.7412109375002	-1186.842163085938	-339.2273254394532	707.5808105468751	-1177.794555664063	-289.4999694824219	708.6638793945314	-1170.835571289063	-369.8295288085938	658.6685791015626	-1157.400268554688	-370.9048461914063	499.036590576172	-1119.012573242188	-336.3938598632813	504.4669189453126	-1005.186157226563	-331.6051330566407	363.5843200683594	-1037.286010742188	-354.0146179199219	303.3199157714844	-1097.68115234375	-323.7474365234376	310.5498657226563	-1061.759887695313	-333.3255920410157	236.9312286376954	-1021.456726074219	-387.6895751953126	107.1888656616211	-1056.641235351563	-357.6450500488282	124.6664276123047	-980.707702636719	-442.674530029297	96.95169067382815	-1007.759521484375	-241.9981384277344	52.14082336425783	-993.7707519531252	-236.223861694336	49.43226623535158	-1032.632690429688	-259.6384582519532	43.01023864746094	-1082.626831054688	-278.7783813476563	730.0397949218751	-822.7346801757815	-219.4415893554688	694.0621948242189	-816.8533935546877	-189.4593963623047	706.5505981445314	-828.4111328125002	-219.0778808593751	609.7013549804689	-823.0627441406252	-208.8063049316407	570.4423828125001	-831.5098876953127	-182.9871978759766	554.9954833984376	-947.7629394531252	-294.8165283203126	489.7488403320314	-868.9174804687502	-390.5633544921876	542.1381225585939	-865.9871215820315	-382.0153198242188	496.3939208984376	-872.8940429687502	-415.1636657714845	473.9820556640626	-916.1636962890627	-565.7990112304689	503.8378295898439	-915.4031982421877	-528.6895141601564	484.8326110839845	-990.6448364257815	-584.6668090820314	558.7673950195314	-965.0879516601565	-573.8143920898439	356.1425781250001	-996.5296020507815	-581.4145507812501	346.6324768066407	-952.5440063476565	-617.0908813476564	370.1039123535157	-905.7885742187502	-277.1683959960938	944.1755981445315	-1136.585571289063	
732	3.655	-216.0880432128907	1639.431884765625	-1023.001892089844	-355.2639465332032	1567.0283203125	-1117.15234375	-339.5174865722657	1571.582397460938	-965.7672119140627	-399.244354248047	1448.41162109375	-1037.47021484375	-436.6993713378907	1133.429321289063	-1040.85888671875	-268.2743530273438	1371.563354492188	-1044.67236328125	-337.1268310546876	1400.860961914063	-1202.183227539063	-204.2106628417969	1330.16064453125	-1295.303100585938	-165.1273498535157	1345.775634765625	-1267.776611328125	-141.7599639892578	1314.769287109375	-1315.544189453125	-94.76076507568361	1288.593139648438	-1330.666259765625	-90.25954437255861	1228.69384765625	-1277.589599609375	154.4859619140625	1288.729858398438	-1302.4990234375	149.0404968261719	1283.036865234375	-1367.76904296875	237.5919036865235	1296.81982421875	-1311.32470703125	-316.3292846679688	1394.4248046875	-887.560485839844	-184.2687072753907	1314.802368164063	-800.571716308594	-149.3684844970703	1346.04345703125	-816.3598632812502	-115.723388671875	1299.574951171875	-794.1165161132815	-51.97826385498048	1297.480102539063	-794.6931152343752	-50.40612030029298	1251.068237304688	-857.6246337890627	191.9620819091797	1272.582763671875	-823.4462890625002	178.0729370117188	1265.848388671875	-758.1735839843751	266.6762695312501	1277.28173828125	-805.8503417968752	-279.2296142578126	953.5747680664065	-918.7392578125002	-442.113250732422	1024.78515625	-1031.141967773438	-450.9842834472657	995.6065673828127	-1057.345092773438	-452.6183471679689	997.168151855469	-1000.452209472656	-364.1870422363282	787.7705688476565	-1186.854370117188	-339.1347656250001	707.5671386718751	-1177.879638671875	-289.3867492675782	708.6598510742189	-1170.894775390625	-369.6533813476563	658.6622314453126	-1157.449462890625	-370.6922912597657	499.0272521972657	-1119.015747070313	-336.1545410156251	504.5402832031251	-1005.181457519531	-331.2032165527344	363.3898010253907	-1037.153930664063	-353.9057312011719	303.2332763671876	-1097.672241210938	-323.6592712402344	310.5039062500001	-1061.75927734375	-333.2514648437501	236.9476623535157	-1021.441284179688	-387.7682189941407	107.2559356689453	-1056.679931640625	-357.6398620605469	124.6931381225586	-980.7092895507815	-442.9073486328126	97.0527038574219	-1007.808715820313	-241.9988098144532	52.14112472534181	-993.7684326171877	-236.2574005126954	49.46222305297853	-1032.717651367188	-259.8706054687501	43.0644760131836	-1082.69873046875	-278.9919433593751	729.8158569335939	-822.860778808594	-219.5374450683594	693.9467163085939	-816.9315185546877	-189.6488037109375	706.2883300781251	-828.472595214844	-219.2883758544922	609.5300292968751	-823.131530761719	-209.0492401123047	570.2864990234376	-831.6304321289065	-183.1597137451172	554.8411865234376	-947.7796020507815	-294.9993591308594	489.5393066406251	-869.043884277344	-390.8613891601564	541.8887939453126	-866.026794433594	-382.1690979003907	496.1888122558595	-872.8655395507815	-415.3999328613282	473.6416320800782	-916.2520141601565	-566.0113525390626	503.4446411132814	-915.4177246093752	-528.9109497070314	484.5065002441407	-990.712585449219	-584.9335937500001	558.3968505859376	-965.0996704101565	-573.9483032226564	355.7654418945313	-996.4490966796877	-581.5144042968751	346.1817016601563	-952.427917480469	-617.0802612304689	369.4003295898438	-906.311950683594	-277.1350402832032	944.1955566406252	-1136.560546875	
733	3.66	-215.9315338134766	1639.314086914063	-1023.033813476563	-355.3235473632813	1566.345825195313	-1117.007080078125	-339.4258728027344	1571.582153320313	-965.8384399414065	-399.2268981933595	1448.408935546875	-1037.560913085938	-436.6563720703126	1133.470825195313	-1040.855834960938	-268.2142944335938	1371.595703125	-1044.6728515625	-337.0197143554688	1400.888549804688	-1202.191162109375	-204.1249237060547	1330.2021484375	-1295.369018554688	-165.0217895507813	1345.747924804688	-1267.77734375	-141.538070678711	1314.775512695313	-1315.578735351563	-94.26189422607423	1288.497924804688	-1330.626220703125	-90.04771423339845	1228.710083007813	-1277.4423828125	154.5379943847657	1288.782348632813	-1302.465087890625	149.3344421386719	1283.15966796875	-1367.703491210938	237.7231903076172	1296.943115234375	-1311.28515625	-316.1947326660157	1394.45361328125	-887.6013183593752	-184.1146697998047	1314.897827148438	-800.5429687500002	-149.27197265625	1346.036254882813	-816.4783325195315	-115.6602478027344	1299.61328125	-794.1992187500002	-51.84466934204103	1297.484008789063	-794.6739501953127	-50.29681777954103	1251.047729492188	-857.859802246094	192.1481933593751	1272.6328125	-823.9080200195315	178.3302459716797	1265.866333007813	-758.7066650390626	266.8290100097657	1277.372314453125	-806.3433837890627	-279.2890014648438	953.5440063476565	-918.7017822265627	-442.0765380859376	1024.772216796875	-1031.210815429688	-450.9485778808595	995.6180419921877	-1057.424438476563	-452.6206359863282	997.1920166015627	-1000.543212890625	-364.1062622070313	787.799255371094	-1186.95947265625	-339.0478820800782	707.5657348632814	-1177.953369140625	-289.4071960449219	708.7192382812501	-1171.072265625	-369.5988159179688	658.6330566406251	-1157.491821289063	-370.4987792968751	499.0031127929689	-1119.039184570313	-335.8800354003907	504.6280517578126	-1005.2587890625	-331.1660156250001	363.4845581054688	-1037.287719726563	-353.7943420410157	303.2597961425782	-1097.65966796875	-323.5065612792969	310.4718627929688	-1061.7548828125	-333.0384521484376	236.8479919433594	-1021.346069335938	-387.7320556640626	107.2399139404297	-1056.644165039063	-357.5948181152344	124.6893005371094	-980.7080688476565	-442.8769531250001	97.02595520019534	-1007.834289550781	-241.9712219238282	52.17174530029298	-993.7521972656252	-236.1973419189454	49.4862632751465	-1032.674560546875	-259.8715209960938	43.13766098022462	-1082.670043945313	-279.1542053222657	729.7259521484376	-822.9887695312502	-219.7024230957032	693.7841186523439	-817.0230102539065	-189.8334503173828	706.1029663085939	-828.639587402344	-219.5651092529297	609.3027343750001	-823.283142089844	-209.2958221435547	570.0949707031251	-831.743835449219	-183.3333740234375	554.6029052734376	-947.8422851562502	-295.2427978515626	489.3318176269532	-869.125183105469	-391.2350463867189	541.5130615234376	-866.115661621094	-382.4243164062501	495.8560791015626	-872.991882324219	-415.624725341797	473.3239746093751	-916.2839965820315	-566.3039550781251	503.0094299316407	-915.5015258789065	-529.1709594726564	484.0982666015626	-990.7734375000002	-585.2589111328126	557.8743286132814	-965.1777954101565	-574.1824340820314	355.2790527343751	-996.467956542969	-581.6623535156251	345.7401123046876	-952.344665527344	-617.2099609375001	368.9858093261719	-906.2442626953127	-277.0077819824219	944.226257324219	-1136.501586914063	
734	3.665	-215.8052368164063	1639.267944335938	-1023.100646972656	-354.8915405273438	1566.918090820313	-1117.153564453125	-339.2500915527344	1571.584716796875	-965.9576416015627	-399.113983154297	1448.448486328125	-1037.527954101563	-436.6448364257814	1133.4755859375	-1040.888549804688	-268.1051330566407	1371.597412109375	-1044.70654296875	-336.7957458496094	1400.832397460938	-1202.184326171875	-204.0074310302735	1330.194946289063	-1295.3896484375	-164.9733276367188	1345.8212890625	-1267.880737304688	-141.5708923339844	1314.876953125	-1315.659057617188	-94.30181884765626	1288.61376953125	-1330.698852539063	-90.01247406005861	1228.728759765625	-1277.554809570313	154.6871643066407	1288.831420898438	-1302.417602539063	149.3984527587891	1283.245727539063	-1367.621704101563	237.7848663330079	1297.053466796875	-1311.1962890625	-316.1460266113282	1394.46142578125	-887.6295166015627	-183.9962158203125	1315.087158203125	-800.4118652343752	-149.1858062744141	1346.0810546875	-816.4555664062502	-115.535758972168	1299.613403320313	-794.3040771484377	-51.75999832153322	1297.458740234375	-794.8701782226565	-50.16281127929689	1250.971435546875	-858.2567138671877	192.2693328857422	1272.635375976563	-824.3118896484377	178.537094116211	1266.029174804688	-759.0947265625001	266.9757995605469	1277.539794921875	-806.935974121094	-279.3176879882813	953.537780761719	-918.7110595703127	-442.0349121093751	1024.738525390625	-1031.253173828125	-450.9187316894532	995.6176757812502	-1057.455322265625	-452.5792541503907	997.1910400390627	-1000.606018066406	-364.0853576660157	787.7778320312502	-1186.98828125	-339.0432128906251	707.5903320312501	-1178.060180664063	-289.3437805175782	708.7485961914064	-1171.197875976563	-369.5975341796876	658.6268310546876	-1157.581787109375	-370.2398071289063	499.0188903808595	-1119.072509765625	-335.6145324707032	504.6562805175782	-1005.233337402344	-331.0042114257813	363.4177551269532	-1037.342651367188	-353.6909484863282	303.2212219238282	-1097.699584960938	-323.4160461425782	310.4737854003907	-1061.823486328125	-333.0018615722657	236.8907012939454	-1021.411193847656	-387.6896972656251	107.2274627685547	-1056.620727539063	-357.5887145996094	124.7134857177735	-980.7017211914065	-442.8687744140626	97.05657196044925	-1007.827392578125	-241.9996032714844	52.10897064208986	-993.7741699218752	-236.2527465820313	49.44157028198244	-1032.665283203125	-259.7115173339844	43.08617019653321	-1082.6103515625	-279.3392028808594	729.6414184570314	-823.0506591796877	-219.9100341796876	693.6326904296876	-817.105407714844	-190.0139770507813	705.9739379882814	-828.5797119140627	-219.8336486816407	609.1007080078126	-823.3911743164065	-209.5093383789063	570.0452270507814	-831.8909912109377	-183.495101928711	554.5182495117189	-947.9554443359377	-295.4998168945313	489.1727294921876	-869.228210449219	-391.4753723144532	541.2207641601564	-866.0900878906252	-382.6510009765626	495.6068115234376	-873.0791625976565	-415.8584594726564	472.9905700683595	-916.3543090820315	-566.5393066406251	502.672576904297	-915.4951782226565	-529.4453125000001	483.5957641601564	-990.7950439453127	-585.5993652343751	557.3584594726564	-965.2835083007815	-574.2160644531251	354.8563842773438	-996.3656005859377	-581.7953491210939	345.2593078613282	-952.2615356445315	-617.3158569335939	368.5332946777344	-906.2058715820315	-276.9634094238282	944.237976074219	-1136.523315429688	
